<svg xmlns="http://www.w3.org/2000/svg" viewBox="0 0 512 512">
  <defs>
    <linearGradient id="grad1" x1="0%" y1="0%" x2="100%" y2="100%">
      <stop offset="0%" style="stop-color:#6366f1;stop-opacity:1" />
      <stop offset="100%" style="stop-color:#8b5cf6;stop-opacity:1" />
    </linearGradient>
  </defs>
  <rect width="512" height="512" rx="96" fill="url(#grad1)"/>
  <g fill="white">
    <!-- Wallet base -->
    <rect x="96" y="160" width="320" height="224" rx="24" fill="white" opacity="0.95"/>
    <!-- Wallet flap -->
    <path d="M96 200 C96 173 118 152 144 152 L368 152 C394 152 416 173 416 200 L416 208 L96 208 Z" fill="white"/>
    <!-- Card slot lines -->
    <rect x="136" y="240" width="160" height="12" rx="6" fill="#6366f1" opacity="0.3"/>
    <rect x="136" y="268" width="120" height="12" rx="6" fill="#6366f1" opacity="0.2"/>
    <!-- Dollar sign circle -->
    <circle cx="340" cy="284" r="48" fill="#10b981"/>
    <text x="340" y="302" font-family="Arial, sans-serif" font-size="56" font-weight="bold" fill="white" text-anchor="middle">$</text>
    <!-- Chart bars at bottom -->
    <rect x="120" y="344" width="24" height="24" rx="4" fill="#6366f1" opacity="0.6"/>
    <rect x="156" y="328" width="24" height="40" rx="4" fill="#6366f1" opacity="0.7"/>
    <rect x="192" y="312" width="24" height="56" rx="4" fill="#6366f1" opacity="0.8"/>
    <rect x="228" y="296" width="24" height="72" rx="4" fill="#6366f1"/>
  </g>
</svg>
